# xmcd
#
# Track frame offsets: 
#        150
#        6777
#        23437
#        42927
#        59138
#        84375
#        105252
#        123172
#        141908
#        162770
#        181616
#        200172
#        219290
#        240517
#        259314
#        279576
#
# Disc length: 3962 seconds
#
# Revision: 0
# Processed by: cddbd v1.5.2PL0 Copyright (c) Steve Scherf et al.
# Submitted via: ExactAudioCopy v0.99pb4
#
DISCID=d20f7810
DTITLE=Angela Johnson - Woman's Touch
DYEAR=2006
DGENRE=R&B
TTITLE0=Intro
TTITLE1=Dream Flight Featuring Rahsaan Patterson
TTITLE2=Play Featuring Frank McComb
TTITLE3=Here I Stand Featuring Claude McKnight
TTITLE4=Let Me Know Featuring Eric Roberson
TTITLE5=More Than You Know Featuring Maysa Leak
TTITLE6=Not The One Featuring Tricia Angus
TTITLE7=Should've Been There
TTITLE8=Get Away Featuring Gordon Chambers
TTITLE9=Cryin' Over U Featuring Tricia Angus and Lisala
TTITLE10=How Sweet Life Is Featuring Julie Dexter
TTITLE11=Wait On A Maybe Featuring Marlon Saunders and Lenora Jaye
TTITLE12=Walkin' Featuring Lisala
TTITLE13=That's Just The Way Featuring Monet
TTITLE14=Amal Featuring Ernesto Abreu
TTITLE15=Good Love Featuring Deni Hines
EXTD=
EXTT0=
EXTT1=
EXTT2=
EXTT3=
EXTT4=
EXTT5=
EXTT6=
EXTT7=
EXTT8=
EXTT9=
EXTT10=
EXTT11=
EXTT12=
EXTT13=
EXTT14=
EXTT15=
PLAYORDER=
